<svg width="276" height="59" viewBox="0 0 276 59" fill="none" xmlns="http://www.w3.org/2000/svg">
<g filter="url(#filter0_b_102_16)">
<path d="M44.3359 43.8018C44.3359 44.2575 44.2546 44.6807 44.0918 45.0713C43.929 45.4619 43.7012 45.8037 43.4082 46.0967C43.1315 46.3734 42.7979 46.5931 42.4072 46.7559C42.0166 46.9186 41.5934 47 41.1377 47H18.2373C17.6514 47 17.0166 46.9349 16.333 46.8047C15.6657 46.6582 14.9984 46.4385 14.3311 46.1455C13.68 45.8525 13.0534 45.4782 12.4512 45.0225C11.849 44.5505 11.3118 43.9889 10.8398 43.3379C10.3841 42.6706 10.0179 41.9056 9.74121 41.043C9.46452 40.1641 9.32617 39.1794 9.32617 38.0889V20.9014C9.32617 20.3154 9.39128 19.6888 9.52148 19.0215C9.66797 18.3379 9.8877 17.6706 10.1807 17.0195C10.4736 16.3522 10.8561 15.7174 11.3281 15.1152C11.8001 14.513 12.3617 13.984 13.0127 13.5283C13.68 13.0563 14.445 12.682 15.3076 12.4053C16.1702 12.1286 17.1468 11.9902 18.2373 11.9902H44.043V18.3379H18.2373C17.4072 18.3379 16.7725 18.5576 16.333 18.9971C15.8936 19.4365 15.6738 20.0876 15.6738 20.9502V38.0889C15.6738 38.9027 15.8936 39.5374 16.333 39.9932C16.7887 40.4326 17.4235 40.6523 18.2373 40.6523H37.9883V32.6934H21.0938V26.2969H41.1377C41.5934 26.2969 42.0166 26.3864 42.4072 26.5654C42.7979 26.7282 43.1315 26.9561 43.4082 27.249C43.7012 27.542 43.929 27.8838 44.0918 28.2744C44.2546 28.6488 44.3359 29.0557 44.3359 29.4951V43.8018ZM76.7402 38.2598C76.7402 39.1387 76.5856 40.0908 76.2764 41.1162C75.9671 42.1253 75.4626 43.0693 74.7627 43.9482C74.0791 44.8109 73.1758 45.5352 72.0527 46.1211C70.946 46.707 69.5951 47 68 47H56.5498C55.6709 47 54.7188 46.8454 53.6934 46.5361C52.6842 46.2269 51.7402 45.7305 50.8613 45.0469C49.9987 44.347 49.2744 43.4437 48.6885 42.3369C48.1025 41.2139 47.8096 39.8548 47.8096 38.2598C47.8096 37.3809 47.9642 36.4287 48.2734 35.4033C48.5827 34.3779 49.0791 33.4339 49.7627 32.5713C50.4626 31.6924 51.3659 30.96 52.4727 30.374C53.5957 29.7881 54.9548 29.4951 56.5498 29.4951H68V35.5498H56.5498C55.6872 35.5498 55.0199 35.8184 54.5479 36.3555C54.0758 36.8763 53.8398 37.5273 53.8398 38.3086C53.8398 39.1387 54.1084 39.7897 54.6455 40.2617C55.1989 40.7174 55.8499 40.9453 56.5986 40.9453H68C68.8626 40.9453 69.5299 40.6849 70.002 40.1641C70.474 39.6432 70.71 38.9922 70.71 38.2109V29.3486C70.71 28.5186 70.4495 27.8594 69.9287 27.3711C69.4242 26.8828 68.7812 26.6387 68 26.6387H54.0596V20.6084H68C68.8789 20.6084 69.8229 20.763 70.832 21.0723C71.8574 21.3815 72.8014 21.8861 73.6641 22.5859C74.543 23.2695 75.2754 24.1729 75.8613 25.2959C76.4473 26.4027 76.7402 27.7536 76.7402 29.3486V38.2598ZM104.97 47H98.6221V29.4951C98.6221 28.665 98.4023 28.0384 97.9629 27.6152C97.5234 27.1758 96.8724 26.9561 96.0098 26.9561H87.7578V47H81.4102V23.7578C81.4102 23.3184 81.4915 22.9115 81.6543 22.5371C81.8171 22.1465 82.0449 21.8128 82.3379 21.5361C82.6309 21.2432 82.9727 21.0153 83.3633 20.8525C83.7539 20.6898 84.1689 20.6084 84.6084 20.6084H96.0586C96.9375 20.6084 97.8815 20.763 98.8906 21.0723C99.8997 21.3815 100.86 21.8779 101.771 22.5615V20.6084H110.365C110.967 20.6084 111.602 20.6816 112.27 20.8281C112.937 20.9583 113.596 21.1699 114.247 21.4629C114.914 21.7559 115.549 22.1383 116.151 22.6104C116.754 23.0661 117.283 23.6276 117.738 24.2949C118.194 24.946 118.56 25.7028 118.837 26.5654C119.114 27.4281 119.252 28.4046 119.252 29.4951V47H112.904V29.4951C112.904 28.665 112.693 28.0384 112.27 27.6152C111.863 27.1758 111.228 26.9561 110.365 26.9561H104.652C104.864 27.7373 104.97 28.5837 104.97 29.4951V47ZM152.755 29.3486C152.755 30.2275 152.6 31.1797 152.291 32.2051C151.982 33.2142 151.477 34.1582 150.777 35.0371C150.094 35.8997 149.19 36.624 148.067 37.21C146.961 37.7959 145.61 38.0889 144.015 38.0889H132.564V32.0586H144.015C144.877 32.0586 145.545 31.7982 146.017 31.2773C146.489 30.7402 146.725 30.0811 146.725 29.2998C146.725 28.4697 146.456 27.8187 145.919 27.3467C145.398 26.8747 144.763 26.6387 144.015 26.6387H132.564C131.702 26.6387 131.035 26.9072 130.562 27.4443C130.09 27.9652 129.854 28.6162 129.854 29.3975V38.2598C129.854 39.1061 130.115 39.7653 130.636 40.2373C131.173 40.7093 131.832 40.9453 132.613 40.9453H144.015V47H132.564C131.686 47 130.733 46.8454 129.708 46.5361C128.699 46.2269 127.755 45.7305 126.876 45.0469C126.013 44.347 125.289 43.4437 124.703 42.3369C124.117 41.2139 123.824 39.8548 123.824 38.2598V29.3486C123.824 28.4697 123.979 27.5257 124.288 26.5166C124.597 25.4912 125.094 24.5472 125.777 23.6846C126.477 22.8057 127.381 22.0732 128.487 21.4873C129.61 20.9014 130.969 20.6084 132.564 20.6084H144.015C144.894 20.6084 145.838 20.763 146.847 21.0723C147.872 21.3815 148.816 21.8861 149.679 22.5859C150.558 23.2695 151.29 24.1729 151.876 25.2959C152.462 26.4027 152.755 27.7536 152.755 29.3486ZM179.373 26.9561H165.091C164.228 26.9561 163.577 27.1758 163.138 27.6152C162.698 28.0384 162.479 28.665 162.479 29.4951V47H156.131V29.4951C156.131 28.4046 156.269 27.4281 156.546 26.5654C156.823 25.7028 157.189 24.946 157.645 24.2949C158.117 23.6276 158.654 23.0661 159.256 22.6104C159.858 22.1383 160.485 21.7559 161.136 21.4629C161.803 21.1699 162.47 20.9583 163.138 20.8281C163.821 20.6816 164.456 20.6084 165.042 20.6084H179.373V26.9561ZM206.821 26.9561H195.737V47H189.316V26.9561H181.064V20.6084H189.316V11.9902H195.737V20.6084H206.821V26.9561ZM238.542 29.3486C238.542 30.2275 238.387 31.1797 238.078 32.2051C237.769 33.2142 237.264 34.1582 236.564 35.0371C235.881 35.8997 234.978 36.624 233.854 37.21C232.748 37.7959 231.397 38.0889 229.802 38.0889H218.352V32.0586H229.802C230.664 32.0586 231.332 31.7982 231.804 31.2773C232.276 30.7402 232.512 30.0811 232.512 29.2998C232.512 28.4697 232.243 27.8187 231.706 27.3467C231.185 26.8747 230.55 26.6387 229.802 26.6387H218.352C217.489 26.6387 216.822 26.9072 216.35 27.4443C215.878 27.9652 215.642 28.6162 215.642 29.3975V38.2598C215.642 39.1061 215.902 39.7653 216.423 40.2373C216.96 40.7093 217.619 40.9453 218.4 40.9453H229.802V47H218.352C217.473 47 216.521 46.8454 215.495 46.5361C214.486 46.2269 213.542 45.7305 212.663 45.0469C211.8 44.347 211.076 43.4437 210.49 42.3369C209.904 41.2139 209.611 39.8548 209.611 38.2598V29.3486C209.611 28.4697 209.766 27.5257 210.075 26.5166C210.384 25.4912 210.881 24.5472 211.564 23.6846C212.264 22.8057 213.168 22.0732 214.274 21.4873C215.397 20.9014 216.757 20.6084 218.352 20.6084H229.802C230.681 20.6084 231.625 20.763 232.634 21.0723C233.659 21.3815 234.603 21.8861 235.466 22.5859C236.345 23.2695 237.077 24.1729 237.663 25.2959C238.249 26.4027 238.542 27.7536 238.542 29.3486ZM267.626 47H250.414C249.535 47 248.575 46.8454 247.533 46.5361C246.492 46.2269 245.523 45.7223 244.628 45.0225C243.749 44.3063 243.008 43.3867 242.406 42.2637C241.82 41.1243 241.527 39.7327 241.527 38.0889V29.4951C241.527 28.8929 241.592 28.2581 241.723 27.5908C241.869 26.9235 242.089 26.2643 242.382 25.6133C242.675 24.946 243.049 24.3112 243.505 23.709C243.977 23.1068 244.538 22.5778 245.189 22.1221C245.857 21.6663 246.622 21.3001 247.484 21.0234C248.347 20.7467 249.324 20.6084 250.414 20.6084H267.626V26.9561H250.414C249.584 26.9561 248.949 27.1676 248.51 27.5908C248.087 28.014 247.875 28.665 247.875 29.5439V38.0889C247.875 38.9189 248.095 39.5537 248.534 39.9932C248.974 40.4326 249.617 40.6523 250.463 40.6523H267.626V47Z" fill="url(#paint0_linear_102_16)"/>
</g>
<defs>
<filter id="filter0_b_102_16" x="5.32617" y="7.99023" width="266.3" height="43.0098" filterUnits="userSpaceOnUse" color-interpolation-filters="sRGB">
<feFlood flood-opacity="0" result="BackgroundImageFix"/>
<feGaussianBlur in="BackgroundImageFix" stdDeviation="2"/>
<feComposite in2="SourceAlpha" operator="in" result="effect1_backgroundBlur_102_16"/>
<feBlend mode="normal" in="SourceGraphic" in2="effect1_backgroundBlur_102_16" result="shape"/>
</filter>
<linearGradient id="paint0_linear_102_16" x1="39" y1="3" x2="37.7392" y2="71.0881" gradientUnits="userSpaceOnUse">
<stop stop-color="#4C1666"/>
<stop offset="1" stop-color="#9812D8" stop-opacity="0.55"/>
</linearGradient>
</defs>
</svg>
