<svg width="295" height="68" viewBox="0 0 295 68" fill="none" xmlns="http://www.w3.org/2000/svg">
<g filter="url(#filter0_b_107_9)">
<circle cx="34" cy="34" r="33" fill="url(#paint0_linear_107_9)"/>
</g>
<g filter="url(#filter1_d_107_9)">
<path d="M51.6514 48.8018C51.6514 49.2575 51.57 49.6807 51.4072 50.0713C51.2445 50.4619 51.0166 50.8037 50.7236 51.0967C50.4469 51.3734 50.1133 51.5931 49.7227 51.7559C49.332 51.9186 48.9089 52 48.4531 52H25.5527C24.9668 52 24.332 51.9349 23.6484 51.8047C22.9811 51.6582 22.3138 51.4385 21.6465 51.1455C20.9954 50.8525 20.3688 50.4782 19.7666 50.0225C19.1644 49.5505 18.6273 48.9889 18.1553 48.3379C17.6995 47.6706 17.3333 46.9056 17.0566 46.043C16.7799 45.1641 16.6416 44.1794 16.6416 43.0889V25.9014C16.6416 25.3154 16.7067 24.6888 16.8369 24.0215C16.9834 23.3379 17.2031 22.6706 17.4961 22.0195C17.7891 21.3522 18.1715 20.7174 18.6436 20.1152C19.1156 19.513 19.6771 18.984 20.3281 18.5283C20.9954 18.0563 21.7604 17.682 22.623 17.4053C23.4857 17.1286 24.4622 16.9902 25.5527 16.9902H51.3584V23.3379H25.5527C24.7227 23.3379 24.0879 23.5576 23.6484 23.9971C23.209 24.4365 22.9893 25.0876 22.9893 25.9502V43.0889C22.9893 43.9027 23.209 44.5374 23.6484 44.9932C24.1042 45.4326 24.7389 45.6523 25.5527 45.6523H45.3037V37.6934H28.4092V31.2969H48.4531C48.9089 31.2969 49.332 31.3864 49.7227 31.5654C50.1133 31.7282 50.4469 31.9561 50.7236 32.249C51.0166 32.542 51.2445 32.8838 51.4072 33.2744C51.57 33.6488 51.6514 34.0557 51.6514 34.4951V48.8018Z" fill="white"/>
</g>
<g filter="url(#filter2_b_107_9)">
<path d="M101.034 43.2598C101.034 44.1387 100.88 45.0908 100.57 46.1162C100.261 47.1253 99.7565 48.0693 99.0566 48.9482C98.373 49.8109 97.4697 50.5352 96.3467 51.1211C95.2399 51.707 93.889 52 92.2939 52H80.8438C79.9648 52 79.0127 51.8454 77.9873 51.5361C76.9782 51.2269 76.0342 50.7305 75.1553 50.0469C74.2926 49.347 73.5684 48.4437 72.9824 47.3369C72.3965 46.2139 72.1035 44.8548 72.1035 43.2598C72.1035 42.3809 72.2581 41.4287 72.5674 40.4033C72.8766 39.3779 73.373 38.4339 74.0566 37.5713C74.7565 36.6924 75.6598 35.96 76.7666 35.374C77.8896 34.7881 79.2487 34.4951 80.8438 34.4951H92.2939V40.5498H80.8438C79.9811 40.5498 79.3138 40.8184 78.8418 41.3555C78.3698 41.8763 78.1338 42.5273 78.1338 43.3086C78.1338 44.1387 78.4023 44.7897 78.9395 45.2617C79.4928 45.7174 80.1439 45.9453 80.8926 45.9453H92.2939C93.1566 45.9453 93.8239 45.6849 94.2959 45.1641C94.7679 44.6432 95.0039 43.9922 95.0039 43.2109V34.3486C95.0039 33.5186 94.7435 32.8594 94.2227 32.3711C93.7181 31.8828 93.0752 31.6387 92.2939 31.6387H78.3535V25.6084H92.2939C93.1729 25.6084 94.1169 25.763 95.126 26.0723C96.1514 26.3815 97.0954 26.8861 97.958 27.5859C98.8369 28.2695 99.5693 29.1729 100.155 30.2959C100.741 31.4027 101.034 32.7536 101.034 34.3486V43.2598ZM128.764 52H122.416V34.4951C122.416 33.665 122.196 33.0384 121.757 32.6152C121.317 32.1758 120.666 31.9561 119.804 31.9561H111.552V52H105.204V28.7578C105.204 28.3184 105.285 27.9115 105.448 27.5371C105.611 27.1465 105.839 26.8128 106.132 26.5361C106.425 26.2432 106.767 26.0153 107.157 25.8525C107.548 25.6898 107.963 25.6084 108.402 25.6084H119.853C120.731 25.6084 121.675 25.763 122.685 26.0723C123.694 26.3815 124.654 26.8779 125.565 27.5615V25.6084H134.159C134.761 25.6084 135.396 25.6816 136.063 25.8281C136.731 25.9583 137.39 26.1699 138.041 26.4629C138.708 26.7559 139.343 27.1383 139.945 27.6104C140.548 28.0661 141.076 28.6276 141.532 29.2949C141.988 29.946 142.354 30.7028 142.631 31.5654C142.908 32.4281 143.046 33.4046 143.046 34.4951V52H136.698V34.4951C136.698 33.665 136.487 33.0384 136.063 32.6152C135.657 32.1758 135.022 31.9561 134.159 31.9561H128.446C128.658 32.7373 128.764 33.5837 128.764 34.4951V52ZM176.049 34.3486C176.049 35.2275 175.894 36.1797 175.585 37.2051C175.276 38.2142 174.771 39.1582 174.071 40.0371C173.388 40.8997 172.484 41.624 171.361 42.21C170.255 42.7959 168.904 43.0889 167.309 43.0889H155.858V37.0586H167.309C168.171 37.0586 168.839 36.7982 169.311 36.2773C169.783 35.7402 170.019 35.0811 170.019 34.2998C170.019 33.4697 169.75 32.8187 169.213 32.3467C168.692 31.8747 168.057 31.6387 167.309 31.6387H155.858C154.996 31.6387 154.328 31.9072 153.856 32.4443C153.384 32.9652 153.148 33.6162 153.148 34.3975V43.2598C153.148 44.1061 153.409 44.7653 153.93 45.2373C154.467 45.7093 155.126 45.9453 155.907 45.9453H167.309V52H155.858C154.979 52 154.027 51.8454 153.002 51.5361C151.993 51.2269 151.049 50.7305 150.17 50.0469C149.307 49.347 148.583 48.4437 147.997 47.3369C147.411 46.2139 147.118 44.8548 147.118 43.2598V34.3486C147.118 33.4697 147.273 32.5257 147.582 31.5166C147.891 30.4912 148.388 29.5472 149.071 28.6846C149.771 27.8057 150.674 27.0732 151.781 26.4873C152.904 25.9014 154.263 25.6084 155.858 25.6084H167.309C168.188 25.6084 169.132 25.763 170.141 26.0723C171.166 26.3815 172.11 26.8861 172.973 27.5859C173.852 28.2695 174.584 29.1729 175.17 30.2959C175.756 31.4027 176.049 32.7536 176.049 34.3486ZM202.167 31.9561H187.885C187.022 31.9561 186.371 32.1758 185.932 32.6152C185.492 33.0384 185.272 33.665 185.272 34.4951V52H178.925V34.4951C178.925 33.4046 179.063 32.4281 179.34 31.5654C179.617 30.7028 179.983 29.946 180.438 29.2949C180.91 28.6276 181.448 28.0661 182.05 27.6104C182.652 27.1383 183.279 26.7559 183.93 26.4629C184.597 26.1699 185.264 25.9583 185.932 25.8281C186.615 25.6816 187.25 25.6084 187.836 25.6084H202.167V31.9561ZM229.115 31.9561H218.031V52H211.61V31.9561H203.358V25.6084H211.61V16.9902H218.031V25.6084H229.115V31.9561ZM260.336 34.3486C260.336 35.2275 260.181 36.1797 259.872 37.2051C259.563 38.2142 259.058 39.1582 258.358 40.0371C257.675 40.8997 256.771 41.624 255.648 42.21C254.542 42.7959 253.191 43.0889 251.596 43.0889H240.146V37.0586H251.596C252.458 37.0586 253.126 36.7982 253.598 36.2773C254.07 35.7402 254.306 35.0811 254.306 34.2998C254.306 33.4697 254.037 32.8187 253.5 32.3467C252.979 31.8747 252.344 31.6387 251.596 31.6387H240.146C239.283 31.6387 238.616 31.9072 238.144 32.4443C237.672 32.9652 237.436 33.6162 237.436 34.3975V43.2598C237.436 44.1061 237.696 44.7653 238.217 45.2373C238.754 45.7093 239.413 45.9453 240.194 45.9453H251.596V52H240.146C239.267 52 238.314 51.8454 237.289 51.5361C236.28 51.2269 235.336 50.7305 234.457 50.0469C233.594 49.347 232.87 48.4437 232.284 47.3369C231.698 46.2139 231.405 44.8548 231.405 43.2598V34.3486C231.405 33.4697 231.56 32.5257 231.869 31.5166C232.178 30.4912 232.675 29.5472 233.358 28.6846C234.058 27.8057 234.962 27.0732 236.068 26.4873C237.191 25.9014 238.55 25.6084 240.146 25.6084H251.596C252.475 25.6084 253.419 25.763 254.428 26.0723C255.453 26.3815 256.397 26.8861 257.26 27.5859C258.139 28.2695 258.871 29.1729 259.457 30.2959C260.043 31.4027 260.336 32.7536 260.336 34.3486ZM288.92 52H271.708C270.829 52 269.869 51.8454 268.827 51.5361C267.785 51.2269 266.817 50.7223 265.922 50.0225C265.043 49.3063 264.302 48.3867 263.7 47.2637C263.114 46.1243 262.821 44.7327 262.821 43.0889V34.4951C262.821 33.8929 262.886 33.2581 263.017 32.5908C263.163 31.9235 263.383 31.2643 263.676 30.6133C263.969 29.946 264.343 29.3112 264.799 28.709C265.271 28.1068 265.832 27.5778 266.483 27.1221C267.151 26.6663 267.916 26.3001 268.778 26.0234C269.641 25.7467 270.618 25.6084 271.708 25.6084H288.92V31.9561H271.708C270.878 31.9561 270.243 32.1676 269.804 32.5908C269.381 33.014 269.169 33.665 269.169 34.5439V43.0889C269.169 43.9189 269.389 44.5537 269.828 44.9932C270.268 45.4326 270.91 45.6523 271.757 45.6523H288.92V52Z" fill="url(#paint1_linear_107_9)"/>
</g>
<defs>
<filter id="filter0_b_107_9" x="-3" y="-3" width="74" height="74" filterUnits="userSpaceOnUse" color-interpolation-filters="sRGB">
<feFlood flood-opacity="0" result="BackgroundImageFix"/>
<feGaussianBlur in="BackgroundImageFix" stdDeviation="2"/>
<feComposite in2="SourceAlpha" operator="in" result="effect1_backgroundBlur_107_9"/>
<feBlend mode="normal" in="SourceGraphic" in2="effect1_backgroundBlur_107_9" result="shape"/>
</filter>
<filter id="filter1_d_107_9" x="12.6416" y="16.9902" width="43.0098" height="43.0098" filterUnits="userSpaceOnUse" color-interpolation-filters="sRGB">
<feFlood flood-opacity="0" result="BackgroundImageFix"/>
<feColorMatrix in="SourceAlpha" type="matrix" values="0 0 0 0 0 0 0 0 0 0 0 0 0 0 0 0 0 0 127 0" result="hardAlpha"/>
<feOffset dy="4"/>
<feGaussianBlur stdDeviation="2"/>
<feComposite in2="hardAlpha" operator="out"/>
<feColorMatrix type="matrix" values="0 0 0 0 0 0 0 0 0 0 0 0 0 0 0 0 0 0 0.25 0"/>
<feBlend mode="normal" in2="BackgroundImageFix" result="effect1_dropShadow_107_9"/>
<feBlend mode="normal" in="SourceGraphic" in2="effect1_dropShadow_107_9" result="shape"/>
</filter>
<filter id="filter2_b_107_9" x="68.1035" y="12.9902" width="224.816" height="43.0098" filterUnits="userSpaceOnUse" color-interpolation-filters="sRGB">
<feFlood flood-opacity="0" result="BackgroundImageFix"/>
<feGaussianBlur in="BackgroundImageFix" stdDeviation="2"/>
<feComposite in2="SourceAlpha" operator="in" result="effect1_backgroundBlur_107_9"/>
<feBlend mode="normal" in="SourceGraphic" in2="effect1_backgroundBlur_107_9" result="shape"/>
</filter>
<linearGradient id="paint0_linear_107_9" x1="1" y1="13.144" x2="67" y2="54.856" gradientUnits="userSpaceOnUse">
<stop stop-color="#4C1666"/>
<stop offset="1" stop-color="#9812D8" stop-opacity="0.65"/>
</linearGradient>
<linearGradient id="paint1_linear_107_9" x1="99.2174" y1="8" x2="97.6914" y2="76.0772" gradientUnits="userSpaceOnUse">
<stop stop-color="#4C1666"/>
<stop offset="1" stop-color="#9812D8" stop-opacity="0.55"/>
</linearGradient>
</defs>
</svg>
